Coordinates
version=1
nRows=4
nColumns=63
inDegrees=yes

Units are S.I. units (second, meters, Newtons, ...)
If the header above contains a line with 'inDegrees', this indicates whether rotational values are in degrees (yes) or radians (no).

endheader
time	pelvis_tilt	pelvis_list	pelvis_rotation	pelvis_tx	pelvis_ty	pelvis_tz	hip_flexion_r	hip_adduction_r	hip_rotation_r	knee_angle_r	knee_angle_r_beta	ankle_angle_r	subtalar_angle_r	mtp_angle_r	hip_flexion_l	hip_adduction_l	hip_rotation_l	knee_angle_l	knee_angle_l_beta	ankle_angle_l	subtalar_angle_l	mtp_angle_l	L5_S1_Flex_Ext	L5_S1_Lat_Bending	L5_S1_axial_rotation	L4_L5_Flex_Ext	L4_L5_Lat_Bending	L4_L5_axial_rotation	L3_L4_Flex_Ext	L3_L4_Lat_Bending	L3_L4_axial_rotation	L2_L3_Flex_Ext	L2_L3_Lat_Bending	L2_L3_axial_rotation	L1_L2_Flex_Ext	L1_L2_Lat_Bending	L1_L2_axial_rotation	L1_T12_Flex_Ext	L1_T12_Lat_Bending	L1_T12_axial_rotation	Abs_r3	Abs_r2	Abs_r1	Abs_t1	Abs_t2	neck_flexion	neck_bending	neck_rotation	arm_flex_r	arm_add_r	arm_rot_r	elbow_flex_r	pro_sup_r	wrist_flex_r	wrist_dev_r	arm_flex_l	arm_add_l	arm_rot_l	elbow_flex_l	pro_sup_l	wrist_flex_l	wrist_dev_l
      1.28333333	    128.10373497	     50.43908082	   -167.55945086	      0.08463135	      2.95756009	      0.01294483	     52.10701931	     -5.14911173	    -23.61648504	     21.97795767	      0.38358772	     26.69168184	     18.10007757	      0.00000000	     71.29382593	    -20.25326682	     -1.02206692	     49.51365735	      0.86417635	     42.66301919	      4.21896762	      0.00000000	     -0.03090315	      1.68729915	      0.29043494	     -0.05739024	      2.24410787	      0.30858713	     -0.05077079	      4.10249915	      0.30858713	     -0.03531921	      4.10249915	      0.25413057	     -0.02869667	      3.44074042	      0.23597839	     -0.01765806	      2.61362638	      0.21782621	     -0.22073812	     19.08706541	      1.61531201	      0.00000000	      0.00000000	     22.97410286	     -5.85360797	     15.56292512	     33.83049759	     14.03305927	    -24.53608211	     19.99249481	     89.99559364	      0.00000000	      0.00000000	     41.63858745	     21.27310770	    192.69091791	     18.51648384	     89.99559364	      0.00000000	      0.00000000
      1.30000000	    128.06077159	     50.59614688	   -167.65216333	      0.08478970	      2.95726586	      0.01371624	     51.99999335	     -4.97947757	    -23.78646210	     21.82664785	      0.38094687	     26.56887852	     18.22513845	      0.00000000	     71.59314200	    -20.36130845	     -0.57903090	     49.97513338	      0.87223062	     42.49643870	      4.05844987	      0.00000000	     -0.03182954	      1.71547259	      0.33310011	     -0.05911064	      2.28157855	      0.35391887	     -0.05229276	      4.17100006	      0.35391887	     -0.03637798	      4.17100006	      0.29146260	     -0.02955691	      3.49819171	      0.27064384	     -0.01818740	      2.65726705	      0.24982509	     -0.22735524	     19.40576907	      1.85260291	      0.00000000	      0.00000000	     22.56584195	     -8.22607992	      9.48511825	     34.16235925	     13.79942666	    -23.12041214	     19.74779929	     89.99559364	      0.00000000	      0.00000000	     41.66057062	     21.46279507	    192.88539210	     18.53696425	     89.99559364	      0.00000000	      0.00000000
      1.31666667	    128.03239339	     50.71821379	   -167.63589662	      0.08490217	      2.95719684	      0.01464144	     51.84503982	     -4.89057718	    -23.81083381	     21.56194418	      0.37632692	     26.44463905	     18.25115672	      0.00000000	     71.78762308	    -20.36553199	     -0.30326399	     50.21368579	      0.87639415	     42.37019649	      4.13543769	      0.00000000	     -0.03347321	      1.74385257	      0.35387941	     -0.06216310	      2.31932391	      0.37599687	     -0.05499314	      4.24000313	      0.37599687	     -0.03825653	      4.24000313	      0.30964448	     -0.03108322	      3.55606416	      0.28752702	     -0.01912659	      2.70122763	      0.26540956	     -0.23909579	     19.72680902	      1.96817110	      0.00000000	      0.00000000	     22.45626071	     -8.19548852	      9.34663548	     34.64559655	     13.79625007	    -23.18415209	     19.38622424	     89.99559364	      0.00000000	      0.00000000	     41.78521852	     21.56613984	    192.88502238	     18.48516706	     89.99559364	      0.00000000	      0.00000000
      1.33333333	    127.96643949	     50.80687173	   -167.51104640	      0.08501306	      2.95715218	      0.01564303	     51.68640346	     -4.88325568	    -23.80667140	     21.40498565	      0.37358748	     26.39184263	     18.22333665	      0.00000000	     71.78806315	    -20.29867858	     -0.20298693	     50.20105501	      0.87617370	     42.35847355	      4.14641285	      0.00000000	     -0.03361082	      1.76470072	      0.37876790	     -0.06241865	      2.34705195	      0.40244089	     -0.05521921	      4.29069333	      0.40244089	     -0.03841380	      4.29069333	      0.33142191	     -0.03121100	      3.59857770	      0.30774892	     -0.01920522	      2.73352141	      0.28407593	     -0.24007870	     19.96264746	      2.10659343	      0.00000000	      0.00000000	     22.36156103	     -8.17499443	      9.26065189	     35.05243629	     13.75281860	    -23.24760150	     19.23362040	     89.99559364	      0.00000000	      0.00000000	     41.99712027	     21.67085913	    192.90386777	     18.36360148	     89.99559364	      0.00000000	      0.00000000
